<?xml version="1.0" encoding="UTF-8"?>
<svg width="190px" height="40px" viewBox="0 0 190 40" version="1.1" xmlns="http://www.w3.org/2000/svg" xmlns:xlink="http://www.w3.org/1999/xlink">
    <!-- Generator: Sketch 50.2 (55047) - http://www.bohemiancoding.com/sketch -->
    <title>path-1</title>
    <desc>Created with Sketch.</desc>
    <defs></defs>
    <g id="Page-1" stroke="none" stroke-width="1" fill="none" fill-rule="evenodd">
        <g id="codebender-logo" fill="#000000" fill-rule="nonzero">
            <path d="M59.8851064,19.2 C59.4595723,18.7574446 59.0127683,18.4212778 58.5446809,18.1914894 C58.0765934,17.9617009 57.5191522,17.8468085 56.8723404,17.8468085 C56.24255,17.8468085 55.6936193,17.9617009 55.2255319,18.1914894 C54.7574444,18.4212778 54.365959,18.7361683 54.0510638,19.1361702 C53.7361686,19.5361723 53.4978731,19.9957421 53.3361702,20.5148936 C53.1744672,21.0340452 53.093617,21.5744653 53.093617,22.1361702 C53.093617,22.6978751 53.1872331,23.2297848 53.3744681,23.7319149 C53.5617031,24.234045 53.8255302,24.6723386 54.1659574,25.0468085 C54.5063847,25.4212785 54.9148912,25.7148926 55.3914894,25.9276596 C55.8680875,26.1404266 56.4042523,26.2468085 57,26.2468085 C57.6468117,26.2468085 58.1999977,26.131916 58.6595745,25.9021277 C59.1191512,25.6723393 59.5446789,25.3361724 59.9361702,24.893617 L61.5702128,26.5276596 C60.9744651,27.1914927 60.2808551,27.6680837 59.4893617,27.9574468 C58.6978683,28.24681 57.8595789,28.3914894 56.9744681,28.3914894 C56.0382932,28.3914894 55.1829826,28.2382994 54.4085106,27.9319149 C53.6340386,27.6255304 52.9659603,27.1957474 52.4042553,26.6425532 C51.8425504,26.0893589 51.4085122,25.4255357 51.1021277,24.6510638 C50.7957431,23.8765919 50.6425532,23.0212813 50.6425532,22.0851064 C50.6425532,21.1489315 50.7957431,20.2893656 51.1021277,19.506383 C51.4085122,18.7234003 51.8382951,18.0510666 52.3914894,17.4893617 C52.9446836,16.9276568 53.6085067,16.4893633 54.3829787,16.1744681 C55.1574506,15.8595729 56.0212718,15.7021277 56.9744681,15.7021277 C57.8595789,15.7021277 58.706379,15.8595729 59.5148936,16.1744681 C60.3234083,16.4893633 61.0255289,16.9702095 61.6212766,17.6170213 L59.8851064,19.2 Z M65.4,22.0340426 C65.4,22.6468116 65.4936161,23.2127634 65.6808511,23.7319149 C65.868086,24.2510665 66.1319132,24.6936151 66.4723404,25.0595745 C66.8127677,25.4255338 67.2297848,25.7148926 67.7234043,25.9276596 C68.2170237,26.1404266 68.7702097,26.2468085 69.3829787,26.2468085 C69.9957477,26.2468085 70.5489337,26.1404266 71.0425532,25.9276596 C71.5361727,25.7148926 71.9531898,25.4255338 72.293617,25.0595745 C72.6340443,24.6936151 72.8978714,24.2510665 73.0851064,23.7319149 C73.2723414,23.2127634 73.3659574,22.6468116 73.3659574,22.0340426 C73.3659574,21.4212735 73.2723414,20.8553217 73.0851064,20.3361702 C72.8978714,19.8170186 72.6340443,19.37447 72.293617,19.0085106 C71.9531898,18.6425514 71.5361727,18.3531926 71.0425532,18.1404255 C70.5489337,17.9276586 69.9957477,17.8212766 69.3829787,17.8212766 C68.7702097,17.8212766 68.2170237,17.9276586 67.7234043,18.1404255 C67.2297848,18.3531926 66.8127677,18.6425514 66.4723404,19.0085106 C66.1319132,19.37447 65.868086,19.8170186 65.6808511,20.3361702 C65.4936161,20.8553217 65.4,21.4212735 65.4,22.0340426 Z M62.9489362,22.0340426 C62.9489362,21.1489317 63.114892,20.3234081 63.4468085,19.5574468 C63.778725,18.7914855 64.2340397,18.1191518 64.812766,17.5404255 C65.3914923,16.9616992 66.0723365,16.5063847 66.8553191,16.1744681 C67.6383018,15.8425516 68.4808466,15.6765957 69.3829787,15.6765957 C70.2851109,15.6765957 71.1276557,15.8425516 71.9106383,16.1744681 C72.6936209,16.5063847 73.3744652,16.9616992 73.9531915,17.5404255 C74.5319178,18.1191518 74.9872324,18.7914855 75.3191489,19.5574468 C75.6510654,20.3234081 75.8170213,21.1489317 75.8170213,22.0340426 C75.8170213,22.9191534 75.6510654,23.7489323 75.3191489,24.5234043 C74.9872324,25.2978762 74.5319178,25.97021 73.9531915,26.5404255 C73.3744652,27.1106412 72.6936209,27.5617005 71.9106383,27.893617 C71.1276557,28.2255335 70.2851109,28.3914894 69.3829787,28.3914894 C68.4808466,28.3914894 67.6383018,28.2255335 66.8553191,27.893617 C66.0723365,27.5617005 65.3914923,27.1106412 64.812766,26.5404255 C64.2340397,25.97021 63.778725,25.2978762 63.4468085,24.5234043 C63.114892,23.7489323 62.9489362,22.9191534 62.9489362,22.0340426 Z M90.8297872,28.0851064 L88.5319149,28.0851064 L88.5319149,26.3489362 L88.4808511,26.3489362 C88.0382953,26.9957479 87.4297915,27.4978706 86.6553191,27.8553191 C85.8808468,28.2127677 85.0851105,28.3914894 84.2680851,28.3914894 C83.3319102,28.3914894 82.4851101,28.2297889 81.7276596,27.906383 C80.9702089,27.5829771 80.3234069,27.1319178 79.787234,26.5531915 C79.2510611,25.9744652 78.8382993,25.3021315 78.5489362,24.5361702 C78.259573,23.7702089 78.1148936,22.9361747 78.1148936,22.0340426 C78.1148936,21.1319104 78.259573,20.2936209 78.5489362,19.5191489 C78.8382993,18.744677 79.2510611,18.0723432 79.787234,17.5021277 C80.3234069,16.9319121 80.9702089,16.485108 81.7276596,16.1617021 C82.4851101,15.8382963 83.3319102,15.6765957 84.2680851,15.6765957 C85.1361745,15.6765957 85.9531872,15.8595727 86.7191489,16.2255319 C87.4851106,16.5914911 88.0723387,17.0893586 88.4808511,17.7191489 L88.5319149,17.7191489 L88.5319149,8.78297872 L90.8297872,8.78297872 L90.8297872,28.0851064 Z M84.5489362,26.2468085 C85.1617055,26.2468085 85.7148911,26.1404266 86.2085106,25.9276596 C86.7021302,25.7148926 87.1191472,25.4255338 87.4595745,25.0595745 C87.8000017,24.6936151 88.0638289,24.2510665 88.2510638,23.7319149 C88.4382987,23.2127634 88.5319149,22.6468116 88.5319149,22.0340426 C88.5319149,21.4212735 88.4382987,20.8553217 88.2510638,20.3361702 C88.0638289,19.8170186 87.8000017,19.37447 87.4595745,19.0085106 C87.1191472,18.6425514 86.7021302,18.3531926 86.2085106,18.1404255 C85.7148911,17.9276586 85.1617055,17.8212766 84.5489362,17.8212766 C83.9361671,17.8212766 83.3829812,17.9276586 82.8893617,18.1404255 C82.3957422,18.3531926 81.9787251,18.6425514 81.6382979,19.0085106 C81.2978706,19.37447 81.0340435,19.8170186 80.8468085,20.3361702 C80.6595735,20.8553217 80.5659574,21.4212735 80.5659574,22.0340426 C80.5659574,22.6468116 80.6595735,23.2127634 80.8468085,23.7319149 C81.0340435,24.2510665 81.2978706,24.6936151 81.6382979,25.0595745 C81.9787251,25.4255338 82.3957422,25.7148926 82.8893617,25.9276596 C83.3829812,26.1404266 83.9361671,26.2468085 84.5489362,26.2468085 Z M96.0382979,22.8765957 C96.0382979,23.404258 96.1531906,23.8851042 96.3829787,24.3191489 C96.6127668,24.7531937 96.9148919,25.1234027 97.2893617,25.4297872 C97.6638315,25.7361717 98.0978698,25.9744672 98.5914894,26.1446809 C99.0851089,26.3148945 99.5957421,26.4 100.123404,26.4 C100.838301,26.4 101.459572,26.2340443 101.987234,25.9021277 C102.514896,25.5702111 102.999997,25.1319176 103.442553,24.587234 L105.178723,25.9148936 C103.902121,27.5659657 102.114905,28.3914894 99.8170213,28.3914894 C98.8638247,28.3914894 98.0000043,28.2297889 97.2255319,27.906383 C96.4510596,27.5829771 95.7957472,27.136173 95.2595745,26.5659574 C94.7234017,25.9957418 94.31064,25.3234082 94.0212766,24.5489362 C93.7319132,23.7744642 93.587234,22.9361747 93.587234,22.0340426 C93.587234,21.1319104 93.7446791,20.2936209 94.0595745,19.5191489 C94.3744698,18.744677 94.8085081,18.0723432 95.3617021,17.5021277 C95.9148962,16.9319121 96.5744638,16.485108 97.3404255,16.1617021 C98.1063864,15.8382963 98.9404213,15.6765957 99.8425532,15.6765957 C100.914899,15.6765957 101.821273,15.8638279 102.561702,16.2382979 C103.302131,16.6127678 103.910636,17.1021247 104.387234,17.706383 C104.863832,18.3106414 105.20851,18.9914855 105.421277,19.7489362 C105.634043,20.5063867 105.740426,21.2765918 105.740426,22.0595745 L105.740426,22.8765957 L96.0382979,22.8765957 Z M103.289362,21.0382979 C103.27234,20.527657 103.19149,20.0595766 103.046809,19.6340426 C102.902127,19.2085085 102.685108,18.8382995 102.395745,18.5234043 C102.106381,18.2085091 101.744683,17.961703 101.310638,17.7829787 C100.876593,17.6042544 100.370215,17.5148936 99.7914894,17.5148936 C99.2297847,17.5148936 98.7148962,17.6212756 98.2468085,17.8340426 C97.7787209,18.0468096 97.3829804,18.3234026 97.0595745,18.6638298 C96.7361685,19.004257 96.4851072,19.3829767 96.306383,19.8 C96.1276587,20.2170234 96.0382979,20.6297852 96.0382979,21.0382979 L103.289362,21.0382979 Z M108.497872,8.78297872 L110.795745,8.78297872 L110.795745,17.7191489 L110.846809,17.7191489 C111.255321,17.0893586 111.842549,16.5914911 112.608511,16.2255319 C113.374471,15.8595727 114.191485,15.6765957 115.059574,15.6765957 C115.995749,15.6765957 116.84255,15.8382963 117.6,16.1617021 C118.35745,16.485108 119.004253,16.9319121 119.540426,17.5021277 C120.076598,18.0723432 120.48936,18.744677 120.778723,19.5191489 C121.068087,20.2936209 121.212766,21.1319104 121.212766,22.0340426 C121.212766,22.9361747 121.068087,23.7702089 120.778723,24.5361702 C120.48936,25.3021315 120.076598,25.9744652 119.540426,26.5531915 C119.004253,27.1319178 118.35745,27.5829771 117.6,27.906383 C116.84255,28.2297889 115.995749,28.3914894 115.059574,28.3914894 C114.242549,28.3914894 113.446813,28.2127677 112.67234,27.8553191 C111.897868,27.4978706 111.289364,26.9957479 110.846809,26.3489362 L110.795745,26.3489362 L110.795745,28.0851064 L108.497872,28.0851064 L108.497872,8.78297872 Z M114.778723,26.2468085 C115.391493,26.2468085 115.944678,26.1404266 116.438298,25.9276596 C116.931917,25.7148926 117.348934,25.4255338 117.689362,25.0595745 C118.029789,24.6936151 118.293616,24.2510665 118.480851,23.7319149 C118.668086,23.2127634 118.761702,22.6468116 118.761702,22.0340426 C118.761702,21.4212735 118.668086,20.8553217 118.480851,20.3361702 C118.293616,19.8170186 118.029789,19.37447 117.689362,19.0085106 C117.348934,18.6425514 116.931917,18.3531926 116.438298,18.1404255 C115.944678,17.9276586 115.391493,17.8212766 114.778723,17.8212766 C114.165954,17.8212766 113.612769,17.9276586 113.119149,18.1404255 C112.625529,18.3531926 112.208512,18.6425514 111.868085,19.0085106 C111.527658,19.37447 111.263831,19.8170186 111.076596,20.3361702 C110.889361,20.8553217 110.795745,21.4212735 110.795745,22.0340426 C110.795745,22.6468116 110.889361,23.2127634 111.076596,23.7319149 C111.263831,24.2510665 111.527658,24.6936151 111.868085,25.0595745 C112.208512,25.4255338 112.625529,25.7148926 113.119149,25.9276596 C113.612769,26.1404266 114.165954,26.2468085 114.778723,26.2468085 Z M125.834043,22.8765957 C125.834043,23.404258 125.948935,23.8851042 126.178723,24.3191489 C126.408511,24.7531937 126.710637,25.1234027 127.085106,25.4297872 C127.459576,25.7361717 127.893614,25.9744672 128.387234,26.1446809 C128.880854,26.3148945 129.391487,26.4 129.919149,26.4 C130.634046,26.4 131.255317,26.2340443 131.782979,25.9021277 C132.310641,25.5702111 132.795742,25.1319176 133.238298,24.587234 L134.974468,25.9148936 C133.697866,27.5659657 131.910649,28.3914894 129.612766,28.3914894 C128.659569,28.3914894 127.795749,28.2297889 127.021277,27.906383 C126.246804,27.5829771 125.591492,27.136173 125.055319,26.5659574 C124.519146,25.9957418 124.106385,25.3234082 123.817021,24.5489362 C123.527658,23.7744642 123.382979,22.9361747 123.382979,22.0340426 C123.382979,21.1319104 123.540424,20.2936209 123.855319,19.5191489 C124.170214,18.744677 124.604253,18.0723432 125.157447,17.5021277 C125.710641,16.9319121 126.370209,16.485108 127.13617,16.1617021 C127.902131,15.8382963 128.736166,15.6765957 129.638298,15.6765957 C130.710643,15.6765957 131.617018,15.8638279 132.357447,16.2382979 C133.097876,16.6127678 133.70638,17.1021247 134.182979,17.706383 C134.659577,18.3106414 135.004254,18.9914855 135.217021,19.7489362 C135.429788,20.5063867 135.53617,21.2765918 135.53617,22.0595745 L135.53617,22.8765957 L125.834043,22.8765957 Z M133.085106,21.0382979 C133.068085,20.527657 132.987235,20.0595766 132.842553,19.6340426 C132.697871,19.2085085 132.480853,18.8382995 132.191489,18.5234043 C131.902126,18.2085091 131.540428,17.961703 131.106383,17.7829787 C130.672338,17.6042544 130.16596,17.5148936 129.587234,17.5148936 C129.025529,17.5148936 128.510641,17.6212756 128.042553,17.8340426 C127.574466,18.0468096 127.178725,18.3234026 126.855319,18.6638298 C126.531913,19.004257 126.280852,19.3829767 126.102128,19.8 C125.923403,20.2170234 125.834043,20.6297852 125.834043,21.0382979 L133.085106,21.0382979 Z M138.293617,15.9829787 L140.591489,15.9829787 L140.591489,17.8468085 L140.642553,17.8468085 C140.931917,17.1999968 141.434039,16.6765978 142.148936,16.2765957 C142.863833,15.8765938 143.689357,15.6765957 144.625532,15.6765957 C145.204258,15.6765957 145.7617,15.7659566 146.297872,15.9446809 C146.834045,16.1234052 147.302126,16.3999981 147.702128,16.7744681 C148.102129,17.148938 148.421276,17.6297843 148.659574,18.2170213 C148.897873,18.8042583 149.017021,19.4978683 149.017021,20.2978723 L149.017021,28.0851064 L146.719149,28.0851064 L146.719149,20.9361702 C146.719149,20.3744653 146.642554,19.893619 146.489362,19.493617 C146.336169,19.0936151 146.131916,18.770214 145.876596,18.5234043 C145.621275,18.2765946 145.327661,18.0978729 144.995745,17.987234 C144.663828,17.8765952 144.319151,17.8212766 143.961702,17.8212766 C143.485104,17.8212766 143.042555,17.8978716 142.634043,18.0510638 C142.22553,18.2042561 141.868087,18.4468068 141.561702,18.7787234 C141.255317,19.1106399 141.017022,19.5319123 140.846809,20.0425532 C140.676595,20.553194 140.591489,21.1574433 140.591489,21.8553191 L140.591489,28.0851064 L138.293617,28.0851064 L138.293617,15.9829787 Z M164.617021,28.0851064 L162.319149,28.0851064 L162.319149,26.3489362 L162.268085,26.3489362 C161.825529,26.9957479 161.217026,27.4978706 160.442553,27.8553191 C159.668081,28.2127677 158.872345,28.3914894 158.055319,28.3914894 C157.119144,28.3914894 156.272344,28.2297889 155.514894,27.906383 C154.757443,27.5829771 154.110641,27.1319178 153.574468,26.5531915 C153.038295,25.9744652 152.625534,25.3021315 152.33617,24.5361702 C152.046807,23.7702089 151.902128,22.9361747 151.902128,22.0340426 C151.902128,21.1319104 152.046807,20.2936209 152.33617,19.5191489 C152.625534,18.744677 153.038295,18.0723432 153.574468,17.5021277 C154.110641,16.9319121 154.757443,16.485108 155.514894,16.1617021 C156.272344,15.8382963 157.119144,15.6765957 158.055319,15.6765957 C158.923409,15.6765957 159.740421,15.8595727 160.506383,16.2255319 C161.272344,16.5914911 161.859573,17.0893586 162.268085,17.7191489 L162.319149,17.7191489 L162.319149,8.78297872 L164.617021,8.78297872 L164.617021,28.0851064 Z M158.33617,26.2468085 C158.94894,26.2468085 159.502125,26.1404266 159.995745,25.9276596 C160.489364,25.7148926 160.906381,25.4255338 161.246809,25.0595745 C161.587236,24.6936151 161.851063,24.2510665 162.038298,23.7319149 C162.225533,23.2127634 162.319149,22.6468116 162.319149,22.0340426 C162.319149,21.4212735 162.225533,20.8553217 162.038298,20.3361702 C161.851063,19.8170186 161.587236,19.37447 161.246809,19.0085106 C160.906381,18.6425514 160.489364,18.3531926 159.995745,18.1404255 C159.502125,17.9276586 158.94894,17.8212766 158.33617,17.8212766 C157.723401,17.8212766 157.170215,17.9276586 156.676596,18.1404255 C156.182976,18.3531926 155.765959,18.6425514 155.425532,19.0085106 C155.085105,19.37447 154.821277,19.8170186 154.634043,20.3361702 C154.446808,20.8553217 154.353191,21.4212735 154.353191,22.0340426 C154.353191,22.6468116 154.446808,23.2127634 154.634043,23.7319149 C154.821277,24.2510665 155.085105,24.6936151 155.425532,25.0595745 C155.765959,25.4255338 156.182976,25.7148926 156.676596,25.9276596 C157.170215,26.1404266 157.723401,26.2468085 158.33617,26.2468085 Z M169.825532,22.8765957 C169.825532,23.404258 169.940425,23.8851042 170.170213,24.3191489 C170.400001,24.7531937 170.702126,25.1234027 171.076596,25.4297872 C171.451066,25.7361717 171.885104,25.9744672 172.378723,26.1446809 C172.872343,26.3148945 173.382976,26.4 173.910638,26.4 C174.625535,26.4 175.246806,26.2340443 175.774468,25.9021277 C176.30213,25.5702111 176.787231,25.1319176 177.229787,24.587234 L178.965957,25.9148936 C177.689355,27.5659657 175.902139,28.3914894 173.604255,28.3914894 C172.651059,28.3914894 171.787238,28.2297889 171.012766,27.906383 C170.238294,27.5829771 169.582981,27.136173 169.046809,26.5659574 C168.510636,25.9957418 168.097874,25.3234082 167.808511,24.5489362 C167.519147,23.7744642 167.374468,22.9361747 167.374468,22.0340426 C167.374468,21.1319104 167.531913,20.2936209 167.846809,19.5191489 C168.161704,18.744677 168.595742,18.0723432 169.148936,17.5021277 C169.70213,16.9319121 170.361698,16.485108 171.12766,16.1617021 C171.89362,15.8382963 172.727655,15.6765957 173.629787,15.6765957 C174.702133,15.6765957 175.608507,15.8638279 176.348936,16.2382979 C177.089365,16.6127678 177.69787,17.1021247 178.174468,17.706383 C178.651066,18.3106414 178.995744,18.9914855 179.208511,19.7489362 C179.421277,20.5063867 179.52766,21.2765918 179.52766,22.0595745 L179.52766,22.8765957 L169.825532,22.8765957 Z M177.076596,21.0382979 C177.059574,20.527657 176.978724,20.0595766 176.834043,19.6340426 C176.689361,19.2085085 176.472342,18.8382995 176.182979,18.5234043 C175.893615,18.2085091 175.531917,17.961703 175.097872,17.7829787 C174.663827,17.6042544 174.157449,17.5148936 173.578723,17.5148936 C173.017019,17.5148936 172.50213,17.6212756 172.034043,17.8340426 C171.565955,18.0468096 171.170214,18.3234026 170.846809,18.6638298 C170.523403,19.004257 170.272341,19.3829767 170.093617,19.8 C169.914893,20.2170234 169.825532,20.6297852 169.825532,21.0382979 L177.076596,21.0382979 Z M182.285106,15.9829787 L184.582979,15.9829787 L184.582979,17.8468085 L184.634043,17.8468085 C184.787235,17.5234026 184.991488,17.2297886 185.246809,16.9659574 C185.502129,16.7021264 185.787232,16.4765967 186.102128,16.2893617 C186.417023,16.1021267 186.7617,15.9531921 187.13617,15.8425532 C187.51064,15.7319144 187.885105,15.6765957 188.259574,15.6765957 C188.634044,15.6765957 188.974466,15.7276591 189.280851,15.8297872 L189.178723,18.306383 C188.991489,18.2553189 188.804256,18.2127661 188.617021,18.1787234 C188.429786,18.1446807 188.242554,18.1276596 188.055319,18.1276596 C186.931909,18.1276596 186.072343,18.44255 185.476596,19.0723404 C184.880848,19.7021308 184.582979,20.6808444 184.582979,22.0085106 L184.582979,28.0851064 L182.285106,28.0851064 L182.285106,15.9829787 Z M23.6900254,5.60001059 L27.5645944,7.21441433 L32.2121094,3.96992187 L36.0300781,7.78789062 L32.7855857,12.4354056 L34.3999894,16.3099746 L39.9609375,17.2985938 L39.9609375,22.7014062 L34.3999894,23.6900254 L32.7855857,27.5645944 L36.0300781,32.2121094 L32.2121094,36.0300781 L27.5645944,32.7855857 L23.6900254,34.3999894 L22.7014062,39.9609375 L17.2985938,39.9609375 L16.3099746,34.3999894 L12.4354056,32.7855857 L7.78789062,36.0300781 L3.96992187,32.2121094 L7.21441433,27.5645944 L5.60001059,23.6900254 L0.0390625,22.7014062 L0.0390625,17.2985938 L5.60001059,16.3099746 L7.21441433,12.4354056 L3.96992187,7.78789062 L7.78789062,3.96992187 L12.4354056,7.21441433 L16.3099746,5.60001059 L17.2985938,0.0390625 L22.7014062,0.0390625 L23.6900254,5.60001059 Z M20,31.71875 C26.484375,31.71875 31.71875,26.484375 31.71875,20 C31.71875,13.515625 26.484375,8.28125 20,8.28125 C13.515625,8.28125 8.28125,13.515625 8.28125,20 C8.28125,26.484375 13.515625,31.71875 20,31.71875 Z" id="path-1"></path>
        </g>
    </g>
</svg>